<svg xmlns="http://www.w3.org/2000/svg" viewBox="0 0 40 40"><g fill="#FFF" fill-rule="evenodd"><path d="M28.387 23.41l3.677-.008c1.496 0 2.709-1.272 2.709-2.836 0-1.568-1.213-2.839-2.704-2.839h-3.677c-1.496 0-2.71 1.271-2.71 2.839 0 1.564 1.21 2.843 2.705 2.843"/><path d="M20 38.686c-7.514 0-13.985-4.434-16.954-10.826-.24-.607-.33-1.516.918-.388l.014.012a10.913 10.913 0 007.97 3.44 10.94 10.94 0 0010.475-7.76l2.454-8.011a1.076 1.076 0 011.014-.721h7.192a2.572 2.572 0 100-5.142h-9.875a2.59 2.59 0 00-2.464 1.788l-3.252 10.615a5.756 5.756 0 01-5.544 4.093A5.787 5.787 0 016.156 20a5.786 5.786 0 015.792-5.782c1.115 0 2.153.316 3.046.86a2.56 2.56 0 001.385.422 2.572 2.572 0 002.576-2.571c0-.941-.485-1.766-1.244-2.212a10.854 10.854 0 00-5.763-1.64A10.92 10.92 0 003.902 12.6l-.007.006c-1.9 1.807-.443-1.308.21-2.43C7.397 4.855 13.283 1.312 20 1.312c7.702 0 14.312 4.664 17.171 11.32.553 1.298.121 2.881.043 3.145l-2.764 9.026v.012a1.074 1.074 0 01-1.026.752h-7.165a2.572 2.572 0 00-2.578 2.567 2.56 2.56 0 002.571 2.56h7.318c.204 0 1.502.047.92 1.089-3.426 4.208-8.64 6.902-14.49 6.902M20 0C8.952 0 0 8.954 0 20s8.952 20 20 20c11.045 0 20-8.954 20-20S31.045 0 20 0"/></g></svg>
